<svg xmlns="http://www.w3.org/2000/svg" width="181" height="53" viewBox="0 0 181 53"><g><g><g><path fill="#fff" d="M12.691 41.094zm-1.494-4.432a7.322 7.322 0 0 1 7.324-7.32c.754 0 1.503.116 2.222.344v-8.852a16.157 16.157 0 0 0-2.534-.146v6.89a7.335 7.335 0 0 0-2.223-.343 7.322 7.322 0 0 0-7.324 7.32 7.319 7.319 0 0 0 4.029 6.54 7.287 7.287 0 0 1-1.494-4.433zm26.488-26.376zM34.557 3.22V2.108h-2.402a12.12 12.12 0 0 0 5.53 8.178 12.064 12.064 0 0 1-3.128-7.065zm12.072 19.66v-8.657c-.852 0-1.702-.09-2.535-.266v6.815c-4.501 0-8.669-1.43-12.072-3.86V34.58c0 8.839-7.168 16.003-16.01 16.003-3.3 0-6.366-.997-8.914-2.707a15.966 15.966 0 0 0 11.448 4.815c8.843 0 16.012-7.164 16.012-16.003V19.02a20.694 20.694 0 0 0 12.07 3.86z"/></g><g><path fill="#fff" d="M32.022 16.912a20.699 20.699 0 0 0 12.072 3.861v-6.815a12.118 12.118 0 0 1-6.41-3.672 12.121 12.121 0 0 1-5.529-8.178h-6.31v34.58a7.323 7.323 0 0 1-7.324 7.295 7.315 7.315 0 0 1-5.83-2.889 7.32 7.32 0 0 1 3.295-13.859c.775 0 1.522.12 2.222.343v-6.89c-8.687.18-15.673 7.274-15.673 16 0 4.355 1.74 8.304 4.563 11.189a15.941 15.941 0 0 0 8.914 2.706c8.842 0 16.01-7.164 16.01-16.003V16.912z"/></g><g><path fill="#fff" d="M18.209 20.689c-8.688.179-15.674 7.273-15.674 15.998 0 4.356 1.74 8.304 4.564 11.19C2.817 45.003 0 40.12 0 34.58c0-8.837 7.169-16.002 16.012-16.002.735 0 1.469.05 2.197.149zm7.636-18.581v34.58a7.323 7.323 0 0 1-7.324 7.295 7.315 7.315 0 0 1-5.83-2.889c.99.5 2.11.781 3.295.781a7.322 7.322 0 0 0 7.323-7.295V0h8.713v1.114c.031.332.075.664.133.994zm11.84 8.178a12.074 12.074 0 0 0 6.409 1.83v1.842a12.107 12.107 0 0 1-6.41-3.672z"/></g><g><path fill="#fff" d="M145.05 43.338c6.327 0 11.457-5.088 11.457-11.363 0-6.276-5.13-11.365-11.457-11.365h-1.726c6.327 0 11.457 5.089 11.457 11.365 0 6.275-5.13 11.363-11.457 11.363z"/></g><g><path fill="#fff" d="M143.168 20.61h-1.726c-6.327 0-11.457 5.089-11.457 11.365 0 6.275 5.13 11.363 11.457 11.363h1.726c-6.328 0-11.457-5.088-11.457-11.363 0-6.276 5.129-11.365 11.457-11.365z"/></g><g><path fill="#fff" d="M165.295 15.474v12.919l6.592-6.538h8.003l-8.318 8.096 9.26 13.387h-7.062l-6.435-9.185-2.04 1.87v7.16h-6.592V15.473zm-71.09 0v12.919l6.59-6.538h8.002l-8.317 8.096 9.26 13.387h-7.062l-6.433-9.185-2.04 1.87v7.16h-6.592V15.473zm-16.007 8.873h6.59v18.836h-6.59zm0-5.604c0-1.805 1.473-3.269 3.293-3.269 1.822 0 3.296 1.464 3.296 3.269 0 1.805-1.474 3.269-3.296 3.269-1.82-.001-3.293-1.464-3.293-3.27zm33.112-3.269h20.872L130.3 21.39h-5.492v21.793h-6.75V21.234h-6.747v-5.76zm-55.24 0H76.94l-1.883 5.916h-5.492v21.793h-6.75V21.234H56.07v-5.76z"/></g><g><path fill="#fff" d="M137.674 31.975c0-3.053 2.496-5.526 5.573-5.526 3.075 0 5.57 2.473 5.57 5.526 0 3.052-2.495 5.526-5.57 5.526-3.077 0-5.573-2.474-5.573-5.526zm5.65 11.363c6.327 0 11.457-5.088 11.457-11.363 0-6.276-5.13-11.365-11.457-11.365h-.157c-6.327 0-11.456 5.089-11.456 11.365 0 6.275 5.129 11.363 11.456 11.363z"/></g></g></g></svg>