<svg xmlns="http://www.w3.org/2000/svg" width="148" height="45" viewBox="0 0 148 45"><g><g><g><path fill="#fff" d="M91.43 34.896c-8.564 6.312-20.978 9.68-31.666 9.68-14.986 0-28.477-5.543-38.684-14.761-.801-.725-.083-1.713.88-1.149 11.014 6.41 24.634 10.265 38.703 10.265 9.488 0 19.925-1.963 29.522-6.037 1.45-.616 2.663.95 1.245 2.002"/></g><g><path fill="#fff" d="M94.99 30.822c-1.09-1.399-7.236-.66-9.994-.334-.84.103-.97-.628-.212-1.154 4.895-3.445 12.927-2.451 13.863-1.296.937 1.16-.244 9.212-4.843 13.055-.706.59-1.38.276-1.065-.507 1.033-2.579 3.348-8.36 2.251-9.764"/></g><g><path fill="#fff" d="M85.188 5.013V1.665c0-.507.385-.847.847-.847h14.992c.481 0 .866.346.866.847v2.867c-.006.481-.41 1.11-1.129 2.105l-7.769 11.091c2.887-.07 5.934.36 8.552 1.835.59.334.75.821.795 1.303v3.573c0 .487-.539 1.058-1.103.763-4.613-2.418-10.74-2.681-15.84.026-.519.282-1.064-.282-1.064-.77v-3.394c0-.545.006-1.475.551-2.303l9.001-12.907h-7.833c-.481 0-.866-.34-.866-.84"/></g><g><path fill="#fff" d="M30.498 25.908h-4.561c-.436-.032-.783-.36-.815-.776V1.722c0-.468.391-.84.879-.84h4.253c.443.02.796.36.828.783v3.06h.083C32.275 1.767 34.36.388 37.17.388c2.855 0 4.638 1.38 5.921 4.337 1.104-2.958 3.612-4.337 6.3-4.337 1.912 0 4.003.79 5.28 2.56 1.443 1.97 1.148 4.83 1.148 7.339l-.006 14.774c0 .468-.392.847-.88.847H50.38c-.456-.032-.821-.398-.821-.847V12.654c0-.988.09-3.451-.129-4.388-.34-1.572-1.36-2.014-2.681-2.014-1.104 0-2.258.737-2.727 1.918-.468 1.18-.423 3.156-.423 4.484v12.407c0 .468-.391.847-.879.847h-4.555c-.462-.032-.82-.398-.82-.847l-.007-12.407c0-2.611.43-6.454-2.81-6.454-3.278 0-3.15 3.747-3.15 6.454v12.407c0 .468-.391.847-.879.847"/></g><g><path fill="#fff" d="M114.84 5.167c1.45 0 2.47.636 2.982 2.265.597 1.873.68 4.234.68 6.21 0 3.002-.166 7.93-3.701 7.93-3.58 0-3.535-6.108-3.535-8.97 0-2.854.212-7.435 3.573-7.435zM114.8.388c-6.6 0-10.264 5.665-10.264 12.952 0 7.243 3.619 13.055 10.265 13.055 6.383 0 10.43-5.664 10.43-12.804 0-7.39-3.662-13.203-10.43-13.203z"/></g><g><path fill="#fff" d="M134.008 25.908h-4.542c-.456-.032-.821-.398-.821-.847l-.007-23.416c.039-.43.417-.763.88-.763h4.227c.398.02.725.289.815.654v3.58h.083C135.92 1.915 137.71.388 140.86.388c2.047 0 4.042.738 5.325 2.759 1.193 1.873 1.193 5.023 1.193 7.287V25.17c-.051.41-.43.738-.879.738h-4.574c-.417-.032-.763-.34-.808-.738V12.455c0-2.56.295-6.306-2.855-6.306-1.11 0-2.13.744-2.636 1.873-.642 1.43-.725 2.855-.725 4.433v12.606c-.007.468-.405.847-.892.847"/></g><g><path fill="#fff" d="M76.758 25.953c-1.514-1.258-1.79-1.841-2.617-3.041-2.502 2.553-4.28 3.317-7.519 3.317-3.842 0-6.826-2.368-6.826-7.108 0-3.702 2.002-6.223 4.863-7.455 2.476-1.09 5.934-1.283 8.577-1.584v-.59c0-1.085.084-2.368-.558-3.305-.551-.84-1.616-1.186-2.56-1.186-1.738 0-3.284.891-3.663 2.739-.077.41-.378.815-.795.834l-4.42-.475c-.372-.083-.79-.385-.68-.956 1.013-5.363 5.863-6.98 10.2-6.98 2.22 0 5.12.59 6.87 2.272 2.22 2.072 2.009 4.837 2.009 7.845v7.108c0 2.137.885 3.073 1.719 4.228.289.41.353.905-.02 1.213-.93.776-2.585 2.22-3.496 3.028l-.006-.013c-.301.27-.738.288-1.078.109zm-3.522-12.215c-3.303 0-6.787.706-6.787 4.593 0 1.97 1.026 3.304 2.778 3.304 1.276 0 2.431-.789 3.156-2.072.898-1.578.853-3.06.853-4.837z"/></g><g><path fill="#fff" d="M18.04 25.844c-.302.27-.738.288-1.078.109-1.514-1.258-1.784-1.841-2.618-3.041-2.501 2.553-4.272 3.317-7.518 3.317C2.99 26.229 0 23.86 0 19.12c0-3.702 2.008-6.223 4.863-7.455 2.476-1.09 5.934-1.283 8.577-1.584v-.59c0-1.085.083-2.368-.552-3.305-.558-.84-1.623-1.186-2.56-1.186-1.738 0-3.29.891-3.669 2.739-.077.41-.378.815-.789.834l-4.427-.475c-.372-.083-.782-.385-.68-.956 1.02-5.363 5.864-6.98 10.2-6.98 2.22 0 5.12.59 6.871 2.272 2.22 2.072 2.008 4.837 2.008 7.845v7.108c0 2.137.886 3.073 1.72 4.228.295.41.359.905-.013 1.213-.93.776-2.586 2.22-3.497 3.028l-.012-.013zm-4.6-12.106c-3.298 0-6.781.706-6.781 4.593 0 1.97 1.02 3.304 2.771 3.304 1.283 0 2.432-.789 3.157-2.072.898-1.578.853-3.06.853-4.837z"/></g></g></g></svg>