<svg xmlns="http://www.w3.org/2000/svg" width="174" height="35" viewBox="0 0 174 35"><g><g><g><g><g><path fill="#fff" d="M20.79 13.907c2.053 2.063 3.732 5.442 2.771 7.449C20.991 26.724 1.816 36.137.187 34.508c-1.63-1.629 7.792-20.81 13.16-23.381 2.007-.961 5.386.718 7.45 2.772l-.007.008z"/></g><g><path fill="#fff" d="M23.738.228c1.73.469 3.479 1.662 3.686 3.443.38 3.266-5.395 8.415-6.766 8.048-1.371-.367-3.787-7.642-1.834-10.36C19.83-.04 22.005-.237 23.738.223v.006zm7.215 11.412c.328 1.236.188 2.787-.811 3.505-1.939 1.393-7.127-.33-7.389-1.308-.262-.978 3.41-5.097 5.74-4.826 1.27.148 2.122 1.395 2.456 2.63z"/></g></g><g><g><path fill="#fff" d="M75.335 19.565l-1.715-.26c-1.634-.242-2.58-.77-2.58-1.735 0-1.105 1.23-1.791 3.052-1.791 1.287 0 2.335.482 3.339.993l.2.102a1.634 1.634 0 0 0 2.17-.667l.14-.253c.221-.403.269-.867.132-1.307a1.655 1.655 0 0 0-.846-.997c-1.462-.732-3.047-1.39-5.135-1.39-4.365 0-7.177 2.108-7.177 5.5 0 2.785 2.001 4.531 5.788 5.05l1.73.224c1.83.257 2.718.798 2.718 1.655 0 .791-.428 1.843-3.26 1.843-1.561 0-3.147-.396-4.434-1.211a1.6 1.6 0 0 0-.857-.249c-.565 0-1.1.3-1.4.783l-.095.156a1.69 1.69 0 0 0-.198 1.304c.114.44.393.805.786 1.026 2.244 1.262 4.834 1.71 6.198 1.71 4.55 0 7.367-1.995 7.367-5.504 0-2.809-1.993-4.418-5.923-4.982z"/></g><g><path fill="#fff" d="M128.245 25.694a1.738 1.738 0 0 0-2.234-.303c-.926.588-1.94.899-2.935.899-2.734 0-4.719-2.16-4.719-5.135 0-2.975 1.985-5.134 4.719-5.134 1.05 0 1.989.285 2.87.872.684.454 1.666.338 2.227-.261l.146-.156c.385-.41.568-.967.503-1.527a1.865 1.865 0 0 0-.822-1.343c-1.344-.891-3.01-1.363-4.82-1.363-5.247 0-8.913 3.665-8.913 8.912 0 5.248 3.665 8.913 8.913 8.913 1.816 0 3.492-.481 4.847-1.39.452-.304.75-.79.818-1.333a1.904 1.904 0 0 0-.47-1.507l-.13-.144z"/></g><g><path fill="#fff" d="M43.321 6.213c-1.365 0-2.435 1.084-2.435 2.467 0 1.389 1.047 2.436 2.435 2.436 1.384 0 2.467-1.07 2.467-2.436a2.44 2.44 0 0 0-2.467-2.467z"/></g><g><path fill="#fff" d="M44.059 12.388h-1.437c-.704 0-1.275.57-1.275 1.274V28.36c0 .704.571 1.275 1.275 1.275h1.436c.704 0 1.275-.571 1.275-1.275V13.662c0-.704-.57-1.274-1.274-1.274z"/></g><g><path fill="#fff" d="M91.228 26.213c-1.612-.006-3.486-1.27-3.486-3.482V16.1h3.498c.704 0 1.275-.57 1.275-1.275v-1.163c0-.704-.57-1.275-1.275-1.275h-3.498V8.562c0-.704-.57-1.275-1.275-1.275h-1.516c-.704 0-1.275.57-1.275 1.275v13.932c0 4.01 3.044 7.556 7.258 7.556h.001c.421 0 .817-.165 1.116-.464.3-.299.464-.695.464-1.116v-.982c0-.708-.579-1.272-1.287-1.275z"/></g><g><path fill="#fff" d="M56.412 12.243c-5.1 0-7.945 4.08-7.945 7.571v8.546c0 .704.571 1.275 1.275 1.275h1.454c.704 0 1.275-.571 1.275-1.275v-7.905c0-2.646 1.603-4.399 3.941-4.399 2.339 0 3.942 1.753 3.942 4.4v7.904c0 .704.571 1.275 1.275 1.275h1.454c.704 0 1.275-.571 1.275-1.275v-8.546c0-3.491-2.845-7.57-7.946-7.57z"/></g><g><path fill="#fff" d="M161.33 12.42c-.553-.12-1.94-.177-2.657-.177-.065 0-.129.003-.191.003-3.95 0-7.596 3.22-7.596 7.657l-.001.011v8.446c0 .704.57 1.275 1.275 1.275h1.453c.704 0 1.275-.571 1.275-1.275v-8.31c0-2.417 1.725-3.992 3.839-3.992.387.006.802.05 1.209.13a1.746 1.746 0 0 0 2.03-1.308l.251-1.044a1.18 1.18 0 0 0-.145-.893 1.16 1.16 0 0 0-.743-.523z"/></g><g><path fill="#fff" d="M171.988 16.102c.704 0 1.275-.571 1.275-1.276v-1.163c0-.704-.57-1.275-1.275-1.275h-3.498V8.562c0-.704-.571-1.275-1.275-1.275h-1.516c-.704 0-1.275.57-1.275 1.275v13.932c0 4.01 3.043 7.556 7.258 7.556h.001c.42 0 .817-.165 1.116-.464.3-.299.464-.695.464-1.116v-.982c0-.708-.579-1.272-1.287-1.275-1.612-.006-3.486-1.27-3.486-3.482V16.1h3.498z"/></g><g><path fill="#fff" d="M140.935 26.022a5.183 5.183 0 0 1-1.515.266l-.087.001-.086-.001c-.035 0-.07-.002-.104-.003a5.183 5.183 0 0 1-1.411-.263c-1.88-.663-3.128-2.508-3.128-4.867 0-2.785 1.74-4.855 4.205-5.108l.04-.003a4.971 4.971 0 0 1 .428-.022h.113a5.12 5.12 0 0 1 .428.022l.04.003c2.465.253 4.204 2.323 4.204 5.108 0 2.36-1.248 4.204-3.127 4.867zm3.319-12.411l-.007-.005c-1.344-.891-3.01-1.363-4.82-1.363l-.094.002-.093-.002c-1.81 0-3.476.472-4.82 1.363l-.007.005c-2.42 1.523-3.899 4.214-3.899 7.544 0 3.49 1.622 6.277 4.25 7.755a8.354 8.354 0 0 0 4.248 1.155c2.864.002 4.593-1.62 5.137-2.329v.611c0 .704.57 1.275 1.275 1.275h1.453c.704 0 1.275-.57 1.275-1.275v-7.192c0-3.33-1.478-6.021-3.898-7.544z"/></g><g><path fill="#fff" d="M104.66 26.022a5.183 5.183 0 0 1-1.514.266l-.087.001-.086-.001a5.183 5.183 0 0 1-1.515-.265c-1.88-.664-3.128-2.509-3.128-4.868 0-2.785 1.74-4.855 4.205-5.108l.04-.003a4.97 4.97 0 0 1 .427-.022h.114a5.118 5.118 0 0 1 .428.022l.04.003c2.465.253 4.204 2.323 4.204 5.108 0 2.36-1.248 4.204-3.127 4.867zm3.32-12.411l-.007-.005c-1.344-.891-3.01-1.363-4.82-1.363l-.094.002-.093-.002c-1.81 0-3.476.472-4.82 1.363l-.007.005c-2.42 1.523-3.899 4.214-3.899 7.544 0 3.49 1.622 6.277 4.25 7.755a8.354 8.354 0 0 0 4.248 1.155c2.864.002 4.593-1.62 5.137-2.329v.611c0 .704.57 1.275 1.275 1.275h1.453c.704 0 1.275-.57 1.275-1.275v-7.192c0-3.33-1.478-6.021-3.898-7.544z"/></g></g></g></g></g></svg>