<svg xmlns="http://www.w3.org/2000/svg" width="175" height="43" viewBox="0 0 175 43"><g><g><g><path fill="#fff" d="M98.892 25.125v2.289c0 .338-.03.687-.123.993-.384 1.271-1.7 2.345-3.347 2.345-1.372 0-2.463-.779-2.463-2.426 0-2.52 2.775-3.217 5.933-3.201zm-57.041 0v2.289c0 .338-.03.687-.123.993-.384 1.271-1.7 2.345-3.347 2.345-1.372 0-2.463-.779-2.463-2.426 0-2.52 2.775-3.217 5.933-3.201zm74.922-9.917c-1.91 0-4.081 1.232-4.993 3.874h-.139v-3.46h-4.488v18.346h5.116v-9.395c0-.506.03-.948.111-1.354.378-1.967 1.884-3.225 4.044-3.225.593 0 1.017.064 1.477.13v-4.803a4.93 4.93 0 0 0-1.128-.113zm-20.703 0c-3.081 0-5.527.865-6.862 1.636l.977 3.342c1.22-.77 3.164-1.407 5.003-1.407 3.044-.008 3.543 1.723 3.543 2.832v.263c-6.637-.01-10.83 2.287-10.83 6.97 0 2.858 2.135 5.537 5.849 5.537 2.283 0 4.194-.911 5.337-2.371h.113s.758 3.17 4.937 1.958c-.22-1.32-.29-2.727-.29-4.422v-6.523c0-4.158-1.777-7.815-7.777-7.815zm-27.377 0c-3.103 0-4.498 1.572-5.343 2.907h-.074v-2.493h-4.732v18.346h4.985v-10.76c0-.504.058-1.037.234-1.501.413-1.083 1.42-2.35 3.03-2.35 2.012 0 2.953 1.7 2.953 4.155v10.456h4.98v-10.89c0-.481.066-1.061.208-1.487.41-1.232 1.496-2.235 2.991-2.235 2.04 0 3.018 1.671 3.018 4.56v10.052h4.984V23.163c0-5.699-2.893-7.955-6.16-7.955-1.446 0-2.588.363-3.62.996-.868.533-1.645 1.29-2.324 2.285h-.073c-.79-1.977-2.643-3.281-5.058-3.281zm-29.664 0c-3.082 0-5.529.865-6.862 1.636l.976 3.342c1.22-.77 3.163-1.407 5.003-1.407 3.047-.008 3.545 1.723 3.545 2.832v.263c-6.638-.01-10.831 2.287-10.831 6.97 0 2.858 2.134 5.537 5.846 5.537 2.285 0 4.195-.911 5.34-2.371h.113s.758 3.17 4.936 1.958c-.22-1.32-.29-2.727-.29-4.422v-6.523c0-4.158-1.776-7.815-7.776-7.815zm80.925-5.661zm0 18.015c0 2.484.468 4.224 1.468 5.287.874.93 2.313 1.532 4.037 1.532 1.467 0 2.91-.278 3.589-.531l-.064-3.876a7.54 7.54 0 0 1-1.884.224c-1.689 0-2.256-1.082-2.256-3.312v-6.892h4.32V15.32h-4.32V9.547h-4.89zm-69.843 6.405h4.96V9.545h-4.96zM.458 9.549v-.002zM5.486 30.2c.807 3.365 2.263 4.604 6.459 3.769l2.707-11.016c.686-2.736 1.147-4.687 1.588-7.47h.077c.31 2.81.752 4.742 1.316 7.48 0 0 1.102 5 1.667 7.627.566 2.626 2.14 4.28 6.25 3.38l6.452-24.42h-5.209l-2.202 10.558c-.592 3.073-1.13 5.474-1.544 8.286h-.074c-.376-2.784-.855-5.09-1.457-8.084l-2.293-10.76h-5.427l-2.453 10.489c-.695 3.187-1.345 5.76-1.758 8.477H9.51a297.97 297.97 0 0 0-1.598-8.878S6.455 12.135 5.943 9.549H.458c.06.246 4.34 17.785 5.028 20.65z"/></g><g><path fill="#fff" d="M155.978 28.634c.984.001 1.794.51 1.904 1.172l.974 11.009c0 1.09-1.275 1.982-2.879 1.982-1.6 0-2.873-.892-2.873-1.982l.972-11.009c.107-.661.918-1.17 1.899-1.172zm7.55-4.562c.13-.002.255.018.373.062l10.02 4.66c.944.546 1.08 2.096.281 3.485-.804 1.383-2.217 2.041-3.155 1.499l-9.05-6.343c-.518-.43-.556-1.389-.064-2.24l-.004.001c.401-.694 1.038-1.117 1.599-1.125zm-15.1 0c.562.007 1.2.43 1.6 1.124l-.004-.002c.494.852.456 1.81-.065 2.241l-9.05 6.342c-.94.543-2.351-.115-3.152-1.499-.803-1.388-.66-2.938.28-3.484l10.018-4.66c.118-.044.244-.064.373-.063zm23.395-14.526c.831.02 1.777.65 2.38 1.69.798 1.387.663 2.937-.281 3.48l-10.024 4.666c-.626.233-1.473-.212-1.967-1.06-.493-.854-.454-1.813.063-2.238l9.05-6.347c.235-.136.5-.197.776-.19zm-31.69 0c.276-.006.54.055.776.191l9.049 6.347c.52.426.559 1.384.064 2.237-.492.85-1.342 1.294-1.968 1.061l-10.02-4.666c-.939-.543-1.081-2.093-.278-3.48.6-1.04 1.545-1.67 2.376-1.69zm15.845-8.83c1.603 0 2.88.893 2.88 1.981l-.978 11.01c-.11.662-.919 1.173-1.903 1.175-.982 0-1.795-.512-1.902-1.175l-.972-11.01c0-1.088 1.272-1.982 2.873-1.982z"/></g></g></g></svg>