<svg xmlns="http://www.w3.org/2000/svg" width="113" height="90" viewBox="0 0 113 90"><g><g><g><path fill="#fff" d="M10.925 75.025V20.4h19.014a9.06 9.06 0 0 0 .093 2.156l.587 3.593a9.107 9.107 0 0 0 8.829 7.632l3.737 12.68a1.822 1.822 0 0 0 2.042 1.281l7.187-1.177a1.82 1.82 0 0 0 1.452-2.31l-3.568-12.104 1.42-.232 22.248-.214.04.255a1.824 1.824 0 0 0 2.093 1.502l5.391-.883a1.823 1.823 0 0 0 1.503-2.091L81.34 20.4h20.625v54.625zM91.04 85.948h-3.642v-7.283h3.642zm-7.284 0H29.133v-7.283h54.624zm-58.266 0H21.85v-7.283h3.641zm24.3-42.643l-3.567.583-3.114-10.561 3.566-.583zM38.131 15.693l8.986-1.472 2.353 14.375-8.985 1.473a5.464 5.464 0 0 1-6.273-4.51l-.587-3.593a5.467 5.467 0 0 1 4.506-6.273zm31.805-8.592l3.433 20.967-20.264.196-2.437-14.885zm5.049-2.977l4.12 25.155-1.799.296-3.54-21.618-.58-3.539zM94.682 85.95v-7.283h9.104a1.82 1.82 0 0 0 1.821-1.82V18.578a1.82 1.82 0 0 0-1.82-1.82H80.743l-2.46-15.02a1.819 1.819 0 0 0-2.09-1.504l-5.392.883A1.823 1.823 0 0 0 69.3 3.209l.041.255-21.153 6.892L37.545 12.1a9.088 9.088 0 0 0-6.534 4.66l-.057-.001H9.104a1.82 1.82 0 0 0-1.82 1.82v58.266a1.82 1.82 0 0 0 1.82 1.821h9.104v7.283H1.821a1.82 1.82 0 1 0 0 3.642h109.248a1.82 1.82 0 1 0 0-3.642z"/></g><g><path fill="#fff" d="M38.237 53.175h36.416v3.641H38.237zm-1.82 7.283h40.057a1.82 1.82 0 0 0 1.82-1.82v-7.284a1.82 1.82 0 0 0-1.82-1.82H36.416a1.82 1.82 0 0 0-1.82 1.82v7.283a1.82 1.82 0 0 0 1.82 1.821z"/></g><g><path fill="#fff" d="M36.416 65.92h40.058a1.82 1.82 0 0 0 0-3.641H36.416a1.82 1.82 0 0 0 0 3.642z"/></g><g><path fill="#fff" d="M36.416 71.383h21.622a1.82 1.82 0 1 0 0-3.642H36.416a1.82 1.82 0 0 0 0 3.642z"/></g><g><path fill="#fff" d="M65.55 67.741h-1.822a1.82 1.82 0 0 0 0 3.642h1.821a1.82 1.82 0 0 0 0-3.642z"/></g></g></g></svg>