<svg xmlns="http://www.w3.org/2000/svg" width="165" height="55" viewBox="0 0 165 55"><g><g><g><path fill="#fff" d="M56.824 36.697c-4.1 0-7.632-3.38-7.632-8.2 0-4.868 3.532-8.2 7.632-8.2s7.632 3.332 7.632 8.2c0 4.814-3.532 8.2-7.632 8.2zm0-21.731c-7.48 0-13.574 5.686-13.574 13.532 0 7.79 6.094 13.531 13.574 13.531 7.48 0 13.575-5.74 13.575-13.531 0-7.846-6.095-13.532-13.575-13.532z"/></g><g><path fill="#fff" d="M86.109 36.697c-4.1 0-7.633-3.38-7.633-8.2 0-4.868 3.533-8.2 7.633-8.2s7.632 3.332 7.632 8.2c0 4.814-3.533 8.2-7.632 8.2zm0-21.731c-7.48 0-13.575 5.692-13.575 13.532 0 7.79 6.095 13.531 13.575 13.531 7.48 0 13.574-5.74 13.574-13.531 0-7.846-6.095-13.532-13.574-13.532z"/></g><g><path fill="#fff" d="M115.302 36.697c-4.1 0-7.535-3.435-7.535-8.15 0-4.766 3.435-8.25 7.535-8.25 4.045 0 7.223 3.484 7.223 8.25 0 4.715-3.178 8.15-7.223 8.15zm12.446-20.908h-5.644v2.203h-.207c-1.336-1.593-3.899-3.026-7.126-3.026-6.766 0-12.965 5.942-12.965 13.58 0 7.584 6.199 13.477 12.965 13.477 3.233 0 5.796-1.433 7.126-3.075h.207v1.947c0 5.18-2.764 7.93-7.223 7.93-3.637 0-5.894-2.598-6.815-4.8l-5.174 2.153c1.489 3.587 5.436 7.974 11.995 7.974 6.967 0 12.86-4.082 12.86-14.075V15.783z"/></g><g><path fill="#fff" d="M137.051 1.544V41.2h-5.795V1.544z"/></g><g><path fill="#fff" d="M152.511 20.194c2.355 0 4.356 1.178 5.021 2.868l-12.092 5.02c-.152-5.222 4.051-7.888 7.071-7.888zm7.126 12.757zm0 0c-1.537 2.258-3.636 3.746-6.662 3.746-3.02 0-5.174-1.385-6.559-4.1l18.09-7.492-.617-1.537c-1.122-3.02-4.557-8.608-11.58-8.608-6.972 0-12.762 5.484-12.762 13.531 0 7.59 5.74 13.532 13.428 13.532 6.198 0 9.786-3.795 11.274-5.997z"/></g><g><path fill="#fff" d="M21.31 24.977v-5.74h19.347c.189 1 .286 2.183.286 3.465 0 4.307-1.177 9.633-4.972 13.428-3.69 3.843-8.407 5.893-14.654 5.893C9.737 42.023 0 32.591 0 21.012 0 9.432 9.737 0 21.317 0c6.406 0 10.97 2.514 14.398 5.79l-4.051 4.05c-2.459-2.305-5.79-4.099-10.353-4.099-8.456 0-15.07 6.815-15.07 15.27 0 8.457 6.614 15.271 15.07 15.271 5.484 0 8.608-2.202 10.61-4.203 1.622-1.623 2.69-3.941 3.11-7.108z"/></g></g></g></svg>