<svg xmlns="http://www.w3.org/2000/svg" width="167" height="15" viewBox="0 0 167 15"><g><g><g><path fill="#ff5733" d="M.001 2.992V.06h9.773c3.258 0 4.887 1.63 4.887 4.887v4.886c0 3.258-1.63 4.886-4.887 4.886H.001v-2.932h9.363c1.563 0 2.345-.772 2.345-2.316V5.3c0-1.538-.779-2.307-2.336-2.307z"/></g><g><path fill="#ff5733" d="M32.252 11.787v2.932h-14.66V.06h2.932v11.727z"/></g><g><path fill="#ff5733" d="M48.093.06l-6.362 14.66h-3.186L32.183.06h3.196l4.76 10.975L44.906.06z"/></g><g><path fill="#ff5733" d="M54.26 8.856h-4.359V5.924h9.284c1.63 0 2.444-.489 2.444-1.466s-.815-1.466-2.444-1.466h-9.284V.06h9.773c3.257 0 4.887 1.466 4.887 4.398 0 2.932-1.63 4.398-4.887 4.398h-.909l6.88 5.863H61.14z"/></g><g><path fill="#ff5733" d="M67.492 2.992V.06h9.773c3.257 0 4.886 1.63 4.886 4.887v4.886c0 3.258-1.629 4.886-4.886 4.886h-9.773v-2.932h9.362c1.564 0 2.346-.772 2.346-2.316V5.3c0-1.538-.779-2.307-2.336-2.307z"/></g><g><path fill="#ff5733" d="M92.902 6.422v8.297H89.97V.06h3l5.795 11.405L104.56.06h3v14.66h-2.931V6.412l-4.212 8.297v.01h-3.304z"/></g><g><path fill="#ff5733" d="M110.493 14.72v-2.933h14.659v2.932zm0-8.796h14.659v2.932h-14.66zm0-5.864h14.659v2.932h-14.66z"/></g><g><path fill="#ff5733" d="M128.083 2.992V.06h9.773c3.258 0 4.886 1.63 4.886 4.887v4.886c0 3.258-1.628 4.886-4.886 4.886h-9.773v-2.932h9.363c1.564 0 2.345-.772 2.345-2.316V5.3c0-1.538-.778-2.307-2.335-2.307z"/></g><g><path fill="#ff5733" d="M148.606 14.72h-2.931V.06h2.931z"/></g><g><path fill="#ff5733" d="M163.158 14.72L158.39 3.744l-4.76 10.974h-3.195L156.796.06h3.186l6.362 14.66z"/></g></g></g></svg>