<svg xmlns="http://www.w3.org/2000/svg" width="15" height="15" viewBox="0 0 15 15"><g><g><g><path fill="#fff" d="M9.993 7.761L.628 7.598a.485.485 0 0 1 .017-.97l9.365.164a.485.485 0 0 1-.017.97z"/></g><g><path fill="#fff" d="M7.365 10.3a.485.485 0 0 1-.328-.833l2.28-2.203-2.202-2.28a.485.485 0 0 1 .697-.674l2.539 2.63c.186.192.18.498-.012.684L7.71 10.163a.48.48 0 0 1-.345.137z"/></g><g><path fill="#fff" d="M7.779 14.345a7.07 7.07 0 0 1-6.534-4.621.484.484 0 1 1 .908-.338 6.106 6.106 0 0 0 5.643 3.99 6.144 6.144 0 0 0 6.243-6.029 6.144 6.144 0 0 0-6.03-6.243 6.106 6.106 0 0 0-5.778 3.791.484.484 0 0 1-.895-.37 7.07 7.07 0 0 1 6.69-4.39c3.918.069 7.05 3.312 6.981 7.23-.068 3.916-3.311 7.048-7.228 6.98z"/></g></g></g></svg>