<svg xmlns="http://www.w3.org/2000/svg" width="48" height="48" viewBox="0 0 48 48"><g><g><g><g><g><path  d="M3.624 24.176A20.507 20.507 0 0 1 24.176 3.624a20.507 20.507 0 0 1 20.552 20.552 20.507 20.507 0 0 1-20.552 20.552A20.507 20.507 0 0 1 3.624 24.176zm-3.172 0c0 13.135 10.59 23.724 23.724 23.724C37.311 47.9 47.9 37.31 47.9 24.176 47.9 11.041 37.298.452 24.176.452S.452 11.042.452 24.176z"/></g></g></g><g><g><g><path  d="M15.48 23.223L25.913 12.79c.627-.627 1.58-.627 2.22 0 .626.628.626 1.58 0 2.22l-9.167 9.166 9.166 9.167c.627.627.627 1.58 0 2.219-.313.313-.627.47-1.11.47-.313 0-.796-.157-1.266-.314L15.48 25.442c-.314-.313-.47-.627-.47-1.11 0-.47.156-.795.47-1.109z"/></g></g></g></g></g></svg>