<svg xmlns="http://www.w3.org/2000/svg" width="70" height="68" viewBox="0 0 70 68"><g><g><g><g><g><path fill="#fff" d="M53.032 65.694H42.656V54.166c0-.637-.516-1.153-1.153-1.153H27.67c-.637 0-1.153.516-1.153 1.153v11.528H16.14V2.287h36.892zm-12.682 0H35.74V55.318h4.611zm-6.917 0h-4.611V55.318h4.611zM68.02 10.357H55.338V1.134c0-.637-.517-1.153-1.153-1.153H14.987c-.636 0-1.153.516-1.153 1.153v16.14H1.153C.516 17.274 0 17.79 0 18.427v47.267a1.153 1.153 0 0 0 2.306 0V19.58h11.528v47.267c0 .637.517 1.153 1.153 1.153h39.198c.636 0 1.153-.516 1.153-1.153V12.662h11.528v53.032a1.153 1.153 0 0 0 2.306 0V11.51c0-.637-.516-1.153-1.153-1.153z"/></g></g></g><g><g><g><path fill="#fff" d="M25.363 11.51h-4.611V6.898h4.611zm1.153-6.918h-6.917c-.637 0-1.153.517-1.153 1.153v6.917c0 .637.516 1.153 1.153 1.153h6.917c.637 0 1.153-.516 1.153-1.153V5.745c0-.636-.516-1.153-1.153-1.153z"/></g></g></g><g><g><g><path fill="#fff" d="M36.892 11.51H32.28V6.898h4.612zm1.153-6.918h-6.918c-.636 0-1.153.517-1.153 1.153v6.917c0 .637.517 1.153 1.153 1.153h6.918c.636 0 1.152-.516 1.152-1.153V5.745c0-.636-.516-1.153-1.152-1.153z"/></g></g></g><g><g><g><path fill="#fff" d="M48.42 11.51H43.81V6.898h4.611zm1.153-6.918h-6.917c-.637 0-1.153.517-1.153 1.153v6.917c0 .637.516 1.153 1.153 1.153h6.917c.637 0 1.153-.516 1.153-1.153V5.745c0-.636-.516-1.153-1.153-1.153z"/></g></g></g><g><g><g><path fill="#fff" d="M25.363 23.038h-4.611v-4.611h4.611zm1.153-6.917h-6.917c-.637 0-1.153.516-1.153 1.153v6.917c0 .637.516 1.153 1.153 1.153h6.917c.637 0 1.153-.516 1.153-1.153v-6.917c0-.637-.516-1.153-1.153-1.153z"/></g></g></g><g><g><g><path fill="#fff" d="M36.892 23.038H32.28v-4.611h4.612zm1.153-6.917h-6.918c-.636 0-1.153.516-1.153 1.153v6.917c0 .637.517 1.153 1.153 1.153h6.918c.636 0 1.152-.516 1.152-1.153v-6.917c0-.637-.516-1.153-1.152-1.153z"/></g></g></g><g><g><g><path fill="#fff" d="M48.42 23.038H43.81v-4.611h4.611zm1.153-6.917h-6.917c-.637 0-1.153.516-1.153 1.153v6.917c0 .637.516 1.153 1.153 1.153h6.917c.637 0 1.153-.516 1.153-1.153v-6.917c0-.637-.516-1.153-1.153-1.153z"/></g></g></g><g><g><g><path fill="#fff" d="M25.363 34.567h-4.611v-4.612h4.611zm1.153-6.917h-6.917c-.637 0-1.153.516-1.153 1.153v6.917c0 .636.516 1.153 1.153 1.153h6.917c.637 0 1.153-.517 1.153-1.153v-6.917c0-.637-.516-1.153-1.153-1.153z"/></g></g></g><g><g><g><path fill="#fff" d="M36.892 34.567H32.28v-4.612h4.612zm1.153-6.917h-6.918c-.636 0-1.153.516-1.153 1.153v6.917c0 .636.517 1.153 1.153 1.153h6.918c.636 0 1.152-.517 1.152-1.153v-6.917c0-.637-.516-1.153-1.152-1.153z"/></g></g></g><g><g><g><path fill="#fff" d="M48.42 34.567H43.81v-4.612h4.611zm1.153-6.917h-6.917c-.637 0-1.153.516-1.153 1.153v6.917c0 .636.516 1.153 1.153 1.153h6.917c.637 0 1.153-.517 1.153-1.153v-6.917c0-.637-.516-1.153-1.153-1.153z"/></g></g></g><g><g><g><path fill="#fff" d="M25.363 46.096h-4.611v-4.612h4.611zm1.153-6.918h-6.917c-.637 0-1.153.517-1.153 1.153v6.917c0 .637.516 1.153 1.153 1.153h6.917c.637 0 1.153-.516 1.153-1.153v-6.917c0-.636-.516-1.153-1.153-1.153z"/></g></g></g><g><g><g><path fill="#fff" d="M36.892 46.096H32.28v-4.612h4.612zm1.153-6.918h-6.918c-.636 0-1.153.517-1.153 1.153v6.917c0 .637.517 1.153 1.153 1.153h6.918c.636 0 1.152-.516 1.152-1.153v-6.917c0-.636-.516-1.153-1.152-1.153z"/></g></g></g><g><g><g><path fill="#fff" d="M48.42 46.096H43.81v-4.612h4.611zm1.153-6.918h-6.917c-.637 0-1.153.517-1.153 1.153v6.917c0 .637.516 1.153 1.153 1.153h6.917c.637 0 1.153-.516 1.153-1.153v-6.917c0-.636-.516-1.153-1.153-1.153z"/></g></g></g><g><g><g><path fill="#fff" d="M6.917 21.885H5.764c-.636 0-1.153.517-1.153 1.153v1.153c0 .637.517 1.153 1.153 1.153h1.153c.637 0 1.153-.516 1.153-1.153v-1.153c0-.636-.516-1.153-1.153-1.153z"/></g></g></g><g><g><g><path fill="#fff" d="M11.529 21.885h-1.153c-.637 0-1.153.517-1.153 1.153v1.153c0 .637.516 1.153 1.153 1.153h1.153c.636 0 1.153-.516 1.153-1.153v-1.153c0-.636-.517-1.153-1.153-1.153z"/></g></g></g><g><g><g><path fill="#fff" d="M6.917 26.497H5.764c-.636 0-1.153.516-1.153 1.153v1.153c0 .636.517 1.152 1.153 1.152h1.153c.637 0 1.153-.516 1.153-1.152V27.65c0-.637-.516-1.153-1.153-1.153z"/></g></g></g><g><g><g><path fill="#fff" d="M11.529 26.497h-1.153c-.637 0-1.153.516-1.153 1.153v1.153c0 .636.516 1.152 1.153 1.152h1.153c.636 0 1.153-.516 1.153-1.152V27.65c0-.637-.517-1.153-1.153-1.153z"/></g></g></g><g><g><g><path fill="#fff" d="M6.917 31.108H5.764c-.636 0-1.153.517-1.153 1.153v1.153c0 .637.517 1.153 1.153 1.153h1.153c.637 0 1.153-.516 1.153-1.153v-1.153c0-.636-.516-1.153-1.153-1.153z"/></g></g></g><g><g><g><path fill="#fff" d="M11.529 31.108h-1.153c-.637 0-1.153.517-1.153 1.153v1.153c0 .637.516 1.153 1.153 1.153h1.153c.636 0 1.153-.516 1.153-1.153v-1.153c0-.636-.517-1.153-1.153-1.153z"/></g></g></g><g><g><g><path fill="#fff" d="M6.917 35.72H5.764c-.636 0-1.153.516-1.153 1.153v1.153c0 .636.517 1.152 1.153 1.152h1.153c.637 0 1.153-.516 1.153-1.152v-1.153c0-.637-.516-1.153-1.153-1.153z"/></g></g></g><g><g><g><path fill="#fff" d="M11.529 35.72h-1.153c-.637 0-1.153.516-1.153 1.153v1.153c0 .636.516 1.152 1.153 1.152h1.153c.636 0 1.153-.516 1.153-1.152v-1.153c0-.637-.517-1.153-1.153-1.153z"/></g></g></g><g><g><g><path fill="#fff" d="M6.917 40.331H5.764c-.636 0-1.153.516-1.153 1.153v1.153c0 .637.517 1.153 1.153 1.153h1.153c.637 0 1.153-.516 1.153-1.153v-1.153c0-.637-.516-1.153-1.153-1.153z"/></g></g></g><g><g><g><path fill="#fff" d="M11.529 40.331h-1.153c-.637 0-1.153.516-1.153 1.153v1.153c0 .637.516 1.153 1.153 1.153h1.153c.636 0 1.153-.516 1.153-1.153v-1.153c0-.637-.517-1.153-1.153-1.153z"/></g></g></g><g><g><g><path fill="#fff" d="M6.917 44.943H5.764c-.636 0-1.153.516-1.153 1.153v1.152c0 .637.517 1.153 1.153 1.153h1.153c.637 0 1.153-.516 1.153-1.153v-1.152c0-.637-.516-1.153-1.153-1.153z"/></g></g></g><g><g><g><path fill="#fff" d="M11.529 44.943h-1.153c-.637 0-1.153.516-1.153 1.153v1.152c0 .637.516 1.153 1.153 1.153h1.153c.636 0 1.153-.516 1.153-1.153v-1.152c0-.637-.517-1.153-1.153-1.153z"/></g></g></g><g><g><g><path fill="#fff" d="M6.917 49.554H5.764c-.636 0-1.153.516-1.153 1.153v1.153c0 .637.517 1.153 1.153 1.153h1.153c.637 0 1.153-.516 1.153-1.153v-1.153c0-.637-.516-1.153-1.153-1.153z"/></g></g></g><g><g><g><path fill="#fff" d="M11.529 49.554h-1.153c-.637 0-1.153.516-1.153 1.153v1.153c0 .637.516 1.153 1.153 1.153h1.153c.636 0 1.153-.516 1.153-1.153v-1.153c0-.637-.517-1.153-1.153-1.153z"/></g></g></g><g><g><g><path fill="#fff" d="M6.917 54.166H5.764c-.636 0-1.153.516-1.153 1.152v1.153c0 .637.517 1.153 1.153 1.153h1.153c.637 0 1.153-.516 1.153-1.153v-1.153c0-.636-.516-1.152-1.153-1.152z"/></g></g></g><g><g><g><path fill="#fff" d="M11.529 54.166h-1.153c-.637 0-1.153.516-1.153 1.152v1.153c0 .637.516 1.153 1.153 1.153h1.153c.636 0 1.153-.516 1.153-1.153v-1.153c0-.636-.517-1.152-1.153-1.152z"/></g></g></g><g><g><g><path fill="#fff" d="M6.917 58.777H5.764c-.636 0-1.153.516-1.153 1.153v1.153c0 .636.517 1.153 1.153 1.153h1.153c.637 0 1.153-.517 1.153-1.153V59.93c0-.637-.516-1.153-1.153-1.153z"/></g></g></g><g><g><g><path fill="#fff" d="M11.529 58.777h-1.153c-.637 0-1.153.516-1.153 1.153v1.153c0 .636.516 1.153 1.153 1.153h1.153c.636 0 1.153-.517 1.153-1.153V59.93c0-.637-.517-1.153-1.153-1.153z"/></g></g></g><g><g><g><path fill="#fff" d="M62.255 19.58h-2.306v-2.306h2.306zm1.153-4.612h-4.612c-.637 0-1.153.516-1.153 1.153v4.612c0 .636.516 1.152 1.153 1.152h4.612c.636 0 1.152-.516 1.152-1.152V16.12c0-.637-.516-1.153-1.152-1.153z"/></g></g></g><g><g><g><path fill="#fff" d="M62.255 28.803h-2.306v-2.306h2.306zm1.153-4.612h-4.612c-.637 0-1.153.516-1.153 1.153v4.611c0 .637.516 1.153 1.153 1.153h4.612c.636 0 1.152-.516 1.152-1.153v-4.611c0-.637-.516-1.153-1.152-1.153z"/></g></g></g><g><g><g><path fill="#fff" d="M62.255 38.026h-2.306V35.72h2.306zm1.153-4.612h-4.612c-.637 0-1.153.516-1.153 1.153v4.611c0 .637.516 1.153 1.153 1.153h4.612c.636 0 1.152-.516 1.152-1.153v-4.611c0-.637-.516-1.153-1.152-1.153z"/></g></g></g><g><g><g><path fill="#fff" d="M62.255 47.248h-2.306v-2.305h2.306zm1.153-4.611h-4.612c-.637 0-1.153.516-1.153 1.153V48.4c0 .637.516 1.153 1.153 1.153h4.612c.636 0 1.152-.516 1.152-1.153V43.79c0-.637-.516-1.153-1.152-1.153z"/></g></g></g><g><g><g><path fill="#fff" d="M62.255 56.471h-2.306v-2.305h2.306zm1.153-4.611h-4.612c-.637 0-1.153.516-1.153 1.153v4.611c0 .637.516 1.153 1.153 1.153h4.612c.636 0 1.152-.516 1.152-1.153v-4.611c0-.637-.516-1.153-1.152-1.153z"/></g></g></g></g></g></svg>