<svg xmlns="http://www.w3.org/2000/svg" width="103" height="78" viewBox="0 0 103 78"><g><g><g><g><path fill="#fff" d="M34.837 19.739H16.05v-3.46h18.787zm1.497-6.454H14.552c-.827 0-1.497.67-1.497 1.498v6.453c0 .827.67 1.498 1.497 1.498h21.782c.827 0 1.497-.67 1.497-1.498v-6.453c0-.827-.67-1.498-1.497-1.498z"/></g><g><path fill="#fff" d="M8.1 57.253c-.827 0-1.498.67-1.498 1.497v10.889c0 .827.67 1.497 1.498 1.497h86.317c.827 0 1.498-.67 1.498-1.497V8.329c0-.826-.67-1.497-1.498-1.497H8.1c-.827 0-1.498.67-1.498 1.498v43.432a1.497 1.497 0 1 0 2.995 0V9.827H41.29V36.99c0 .827.67 1.497 1.497 1.497h7.254a1.497 1.497 0 1 0 0-2.995h-5.756V9.827H92.92v25.665H57.028a1.497 1.497 0 1 0 0 2.995H92.92v29.655H9.597V58.75c0-.827-.67-1.497-1.497-1.497z"/></g><g><path fill="#fff" d="M100.872 16.883c.827 0 1.497-.67 1.497-1.498V5.908c0-3.05-2.48-5.53-5.53-5.53H5.678a5.537 5.537 0 0 0-5.53 5.53V72.06c0 3.049 2.48 5.53 5.53 5.53h91.161c3.05 0 5.53-2.481 5.53-5.53V22.373a1.497 1.497 0 1 0-2.994 0v49.688a2.538 2.538 0 0 1-2.536 2.535H5.678a2.538 2.538 0 0 1-2.536-2.535V5.908a2.538 2.538 0 0 1 2.536-2.536h91.161a2.538 2.538 0 0 1 2.536 2.536v9.477c0 .827.67 1.498 1.497 1.498z"/></g><g><path fill="#fff" d="M20.401 63.07c.827 0 1.498-.67 1.498-1.497v-1.326H86.35a1.497 1.497 0 1 0 0-2.995H21.899v-1.327a1.497 1.497 0 1 0-2.995 0v1.327h-2.738a1.497 1.497 0 1 0 0 2.995h2.738v1.326c0 .827.67 1.497 1.497 1.497z"/></g><g><path fill="#fff" d="M52.831 25.318l2.412-6.333 2.39 6.333zm6.97 5.746a1.498 1.498 0 0 0 2.802-1.057L56.967 15.07a1.834 1.834 0 0 0-1.718-1.181h-.003a1.834 1.834 0 0 0-1.715 1.178l-5.689 14.936a1.497 1.497 0 0 0 2.799 1.065l1.05-2.755h7.072z"/></g><g><path fill="#fff" d="M85.112 29.015c-.856 0-1.676-.342-2.195-.914a1.497 1.497 0 1 0-2.219 2.011c1.093 1.206 2.701 1.898 4.413 1.898 2.15 0 3.957-1.384 4.297-3.29.258-1.446-.382-3.33-2.955-4.279a50.077 50.077 0 0 1-2.52-1.016.345.345 0 0 1-.093-.306c.033-.229.228-.413.535-.505 1.167-.353 2.28.513 2.322.546a1.497 1.497 0 0 0 1.917-2.3c-.862-.725-2.907-1.775-5.103-1.114-1.426.43-2.436 1.56-2.635 2.947a3.323 3.323 0 0 0 1.483 3.29c.066.043.135.08.207.112.055.025 1.37.61 2.85 1.156.55.203 1.113.557 1.044.943-.059.331-.528.82-1.348.82z"/></g><g><path fill="#fff" d="M67.609 25.737a3.282 3.282 0 0 1 3.278-3.278 3.282 3.282 0 0 1 3.277 3.278 3.282 3.282 0 0 1-3.277 3.278 3.282 3.282 0 0 1-3.278-3.278zm6.647 5.287a1.496 1.496 0 0 0 2.903-.512v-14.24a1.497 1.497 0 1 0-2.995 0v4.12a6.235 6.235 0 0 0-3.277-.928 6.28 6.28 0 0 0-6.273 6.273 6.28 6.28 0 0 0 6.273 6.272c1.24 0 2.395-.362 3.369-.985z"/></g><g><path fill="#fff" d="M14.552 29.188h21.782a1.497 1.497 0 1 0 0-2.995H14.552a1.497 1.497 0 1 0 0 2.995z"/></g><g><path fill="#fff" d="M14.552 35.641h21.782a1.497 1.497 0 1 0 0-2.994H14.552a1.497 1.497 0 1 0 0 2.994z"/></g><g><path fill="#fff" d="M14.552 42.095h21.782a1.497 1.497 0 1 0 0-2.995H14.552a1.497 1.497 0 1 0 0 2.995z"/></g><g><path fill="#fff" d="M14.552 48.549H26.25a1.497 1.497 0 1 0 0-2.995H14.552a1.497 1.497 0 1 0 0 2.995z"/></g></g></g></g></svg>