<svg xmlns="http://www.w3.org/2000/svg" width="174" height="36" viewBox="0 0 174 36"><g><g><g><path fill="#fff" d="M26.936 11.033h7.66v24.064h-7.66z"/></g><g><g><g><g><path fill="#fff" d="M36.196 11.033h7.38v3.29h.14c1.786-2.585 4.089-3.994 7.426-3.994 5.264 0 8.366 3.76 8.366 9.117v15.651h-7.661v-14.1c0-2.538-1.269-4.277-3.76-4.277-2.538 0-4.23 2.115-4.23 5.076v13.301h-7.66z"/></g></g><g><g><path fill="#fff" d="M35.361 4.595a4.595 4.595 0 1 0-9.19 0 4.595 4.595 0 0 0 9.19 0"/></g></g><g><g><path fill="#fff" d="M113.388 10.686a8.603 8.603 0 0 0-.762-.029c-2.914 0-4.888 1.27-6.58 4.136h-.141v-3.76h-7.332v24.064h7.66v-10.81c0-5.009 2.774-7.33 7.155-6.925z"/></g></g><g><g><path fill="#fff" d="M150.983 19.916c-3.055-.564-5.781-.799-5.781-2.49 0-1.505 1.457-2.21 3.337-2.21 2.115 0 3.572.658 3.854 2.82h7.05c-.376-4.747-4.042-7.708-10.857-7.708-5.687 0-10.387 2.632-10.387 7.708 0 5.64 4.465 6.768 8.648 7.473 3.196.564 6.11.8 6.11 2.961 0 1.551-1.457 2.397-3.76 2.397-2.31 0-3.839-.977-4.307-2.96h-7.3c.537 4.946 4.88 7.942 11.654 7.942 6.298 0 10.95-2.726 10.95-7.99 0-6.157-4.981-7.238-9.211-7.943"/></g></g><g><g><path fill="#fff" d="M129.69 27.906h7.473c-.517 2.162-1.927 4.23-4.042 5.687-2.021 1.41-4.465 2.209-7.52 2.209-7.943 0-12.83-5.5-12.83-12.784 0-7.19 5.028-12.69 12.36-12.69 3.431 0 6.157 1.128 8.225 3.008 2.867 2.632 4.277 6.815 4.23 11.703H120.29c.47 3.243 2.256 5.264 5.405 5.264zm-9.353-7.426h9.494c-.282-2.867-2.068-4.7-4.559-4.7z"/></g></g><g><g><path fill="#fff" d="M173.687 29.423c-.355.014-.831.034-1.27.034-1.644 0-2.678-.47-2.678-2.35v-11.28h3.948v-4.794h-3.948V3.42h-7.473v7.613h-2.351v4.794h2.35v12.925c0 5.17 3.197 6.627 7.662 6.627 1.703 0 2.991-.128 3.76-.278z"/></g></g><g><g><path fill="#fff" d="M73.189 29.433c-.306.012-.659.024-.988.024-1.645 0-2.68-.47-2.68-2.35v-11.28h3.668v-4.794h-3.667V3.42h-7.473v7.614h-2.492v4.794h2.492v12.925c0 5.17 3.196 6.627 7.66 6.627 1.512 0 2.695-.1 3.48-.228z"/></g></g><g><g><path fill="#fff" d="M72.815 23.018c0-7.19 5.029-12.69 12.36-12.69 3.431 0 6.158 1.128 8.226 3.008 2.867 2.632 4.276 6.815 4.23 11.703H80.334c.47 3.243 2.256 5.264 5.405 5.264 2.02 0 3.337-.893 3.994-2.397h7.473c-.517 2.162-1.926 4.23-4.042 5.687-2.02 1.41-4.464 2.209-7.52 2.209-7.942 0-12.83-5.499-12.83-12.784zm17.06-2.538c-.281-2.867-2.068-4.7-4.558-4.7-2.914 0-4.418 1.833-4.935 4.7z"/></g></g><g><g><path fill="#fff" d="M0 1.493h13.303c4.09 0 7.097 1.127 9.165 3.101 2.162 2.021 3.384 4.888 3.384 8.272 0 6.44-4.465 10.998-11.374 10.998H7.756v11.233H0zm13.631 15.791c3.008 0 4.7-1.786 4.7-4.465s-1.739-4.324-4.7-4.324H7.756v8.79z"/></g></g></g></g></g></g></svg>