<svg xmlns="http://www.w3.org/2000/svg" width="170" height="34" viewBox="0 0 170 34"><g><g><path fill="#fff" d="M150.162 32.942V1.356l6.372-.554v21.17l6.323-10.088h6.73l-6.596 10.449 6.85 10.609h-6.75l-6.557-10.302v10.302zm-17-11.635v2.217c0 3.24 1.683 4.93 4.076 4.93 2.559 0 4.237-1.807 4.237-4.93v-2.217c0-2.578-1.2-4.843-4.226-4.843-2.085 0-4.086 1.388-4.086 4.843zm14.599 1.074c0 7.618-4.16 10.984-10.413 10.984-4.272 0-10.517-1.535-10.517-11.071 0-6.95 3.623-10.829 10.505-10.829 5.747 0 10.425 2.987 10.425 10.916zm-33.595-5.917c-2.085 0-4.086 1.388-4.086 4.843v2.217c0 3.24 1.682 4.93 4.075 4.93 2.559 0 4.237-1.807 4.237-4.93v-2.217c0-2.578-1.2-4.843-4.226-4.843zm.087-4.999c5.747 0 10.424 2.987 10.424 10.916 0 7.618-4.16 10.984-10.413 10.984-4.271 0-10.517-1.535-10.517-11.071 0-6.95 3.624-10.829 10.506-10.829zM68.577 15.79c-2.324 0-3.945 1.25-4.08 4.721h7.82c.083-3.299-1.42-4.721-3.74-4.721zm-.161-4.295c5.553 0 9.524 2.654 9.524 9.697v3.441H64.485c.382 3.335 1.875 4.22 5.345 4.22 3.347 0 6.413-1.305 6.413-1.305l1.189 4.289s-2.606 1.61-8.364 1.61c-5.924 0-10.892-2.17-10.892-10.598v-1.206c0-6.494 3.538-10.148 10.24-10.148zm22.73 4.953c-2.481 0-4.155 1.73-4.155 4.675l-.006 3.008c-.004 1.984 1.16 4.306 4.162 4.306 4.222 0 4.11-4.56 4.11-6.078 0-5.109-2.25-5.911-4.11-5.911zm1.782-4.97c5.909 0 8.655 4.444 8.655 10.754 0 7.947-3.507 11.128-8.658 11.128-2.948 0-5.127-1.24-6.304-3.555v3.14l-5.984-.003V1.356L86.99.802V14.84c.917-2.456 3.93-3.363 5.937-3.363zm-52.53 10.94c0-2.56-.123-10.932 10.786-10.932 4.378 0 6.207 1.392 6.207 1.392l-1.47 4.558s-1.826-1.005-4.205-1.005c-3.048 0-4.992 1.766-4.992 4.875l.003 2.229c0 2.986 1.876 4.98 4.995 4.98 2.168 0 4.166-1.015 4.166-1.015l1.465 4.463s-1.671 1.401-6.139 1.401c-10.386 0-10.816-7.512-10.816-10.947zm-12.792-5.97c-1.86 0-4.11.802-4.11 5.91 0 1.52-.113 6.079 4.11 6.079 2.747 0 3.977-2.322 3.977-4.306l-.006-3.008c0-2.944-1.49-4.675-3.97-4.675zm-1.541-4.976c2.872.025 4.863 1.57 5.824 3.654v-3.238h6.061v21.057h-6.06v-3.14c-1.178 2.315-3.114 3.555-6.062 3.555-5.151 0-8.658-3.18-8.658-11.128 0-6.31 2.703-10.754 8.612-10.754.095-.002.19-.006.283-.006zm-14.621 21.47H5.07V17.057H.731v-5.172h4.34v-3.68c0-4.36 1.92-7.488 8.275-7.488 1.344 0 3.454.27 3.454.27V5.79h-2.216c-2.258 0-3.14.687-3.14 2.586v3.51h5.272l-.47 5.171h-4.802z"/></g></g></svg>