<svg xmlns="http://www.w3.org/2000/svg" width="181" height="41" viewBox="0 0 181 41"><g><g><g><path fill="#fff" d="M37.988 20.18l-14.932 8.649V11.532zm-9.166 20.18c.181 0 18.05-.015 22.471-1.22a7.274 7.274 0 0 0 5.101-5.1c1.427-7.959 1.872-20.036-.038-27.72a7.269 7.269 0 0 0-5.1-5.1C46.837.014 28.966 0 28.786 0c-.18 0-18.084.06-22.47 1.257a7.27 7.27 0 0 0-5.102 5.1C.504 10.523.064 15.612.007 20.317-.06 25.787.37 30.532 1.25 34.04a7.274 7.274 0 0 0 5.1 5.1c4.422 1.205 22.292 1.22 22.472 1.22z"/></g><g><g><path fill="#fff" d="M69.773 26.241v11.162h5.581V26.204l6.542-23.321H76.24s-2.594 11.376-3.622 17.223h-.148c-.905-5.507-3.548-17.223-3.548-17.223h-5.655l6.468 23.358zm101.934-10.164c.26-.332.703-.517 1.331-.554.591 0 1.035.185 1.33.518.296.332.481.924.592 1.774.11.85.148 5.507.148 3.696v1.81h-4.14v-1.81s.037-2.883.148-3.696c.111-.814.296-1.368.591-1.738zm-.739 10.608h9.499V22.36c0-2.661-.185-4.731-.628-6.247-.444-1.515-1.183-2.624-2.218-3.326s-2.513-1.072-4.472-1.072c-6.494.019-7.599 4.62-7.725 10.903v4.472c0 3.66.592 6.394 1.7 8.131 1.11 1.738 3.068 2.625 5.877 2.625 2.328 0 4.103-.592 5.396-1.737 1.294-1.146 1.922-2.883 1.922-5.212 0-.37 0-.665-.037-.887l-4.916-.295c-.037 1.515-.184 2.624-.517 3.289-.296.665-.887.998-1.737.998-.628 0-1.109-.185-1.405-.555-.295-.37-.48-.96-.59-1.774l-.149-3.659v-1.293zm-82.678 7.28c-.813 0-1.368-.406-1.663-1.219-.296-.813-.444-2.18-.444-4.028v-7.873c0-1.81.148-3.104.48-3.954.333-.85.85-1.257 1.627-1.257.776 0 1.33.407 1.663 1.257.333.813.48 2.143.48 3.954v7.873c0 1.848-.147 3.215-.48 4.028-.333.813-.887 1.22-1.663 1.22zm-4.731 2.736c1.146.74 2.698 1.146 4.694 1.109 1.922 0 3.474-.407 4.62-1.146 1.146-.776 1.959-1.959 2.476-3.585.518-1.626.776-3.77.776-6.468v-3.659c0-2.698-.258-4.879-.776-6.505-.517-1.626-1.367-2.809-2.476-3.585-1.109-.776-2.624-1.146-4.472-1.146-1.885 0-3.4.407-4.583 1.146-1.183.74-2.033 1.922-2.587 3.585-.555 1.626-.814 3.844-.814 6.542v3.659c0 2.698.222 4.842.703 6.468.48 1.626 1.293 2.809 2.439 3.585z"/></g><g><path fill="#fff" d="M114.457 12.197V37.44h-4.435l-.48-3.105h-.111c-1.22 2.329-3.031 3.512-5.433 3.512-4.35-.011-4.835-3.696-4.879-6.8v-18.85h5.692v18.516c0 1.11.11 1.922.37 2.403.524 1.027 1.884.765 2.623.259.427-.289.771-.684.998-1.146V12.197z"/></g><g><path fill="#fff" d="M157.182 23.248c0-1.996-.074-3.512-.184-4.583-.148-1.072-.333-1.848-.666-2.292-.643-.924-2.032-.913-2.846 0-.48.444-.813.998-.997 1.7v14.34c.458.777 1.108 1.294 2.254 1.331.591 0 1.072-.222 1.441-.665.37-.444.629-1.183.777-2.218.147-1.035.221-2.476.221-4.324zm5.212-7.023c.332 1.59.517 3.807.517 6.616v3.992c0 3.733-.48 6.505-1.367 8.279-.924 1.774-2.329 2.66-4.25 2.66a6.01 6.01 0 0 1-2.92-.738 5.174 5.174 0 0 1-1.96-2.033h-.11l-.592 2.402h-4.694V1.59h5.47v13.306h.037c.518-.961 1.183-1.737 2.107-2.329.863-.58 1.88-.889 2.92-.887 1.367 0 2.402.37 3.178 1.072.777.74 1.331 1.885 1.664 3.474zm-38.143-8.76V37.44h-5.543V7.466h-5.655V2.883h16.816v4.583z"/></g></g><g><path fill="#fff" d="M143.618 12.197V37.44h-4.435l-.48-3.105h-.111c-1.22 2.329-3.031 3.512-5.433 3.512-4.35-.011-4.835-3.696-4.879-6.8v-18.85h5.692v18.516c0 1.11.11 1.922.37 2.403.524 1.027 1.884.765 2.624.259.426-.289.77-.684.997-1.146V12.197z"/></g></g></g></svg>