<svg xmlns="http://www.w3.org/2000/svg" width="81" height="54" viewBox="0 0 81 54"><g><g><g><g><g><path fill="#fff" d="M6.705 6.935h67.047v40.229H6.705zm73.752 43.581V3.583c0-2.011-1.341-3.352-3.353-3.352H3.352C1.341.23 0 1.57 0 3.583v46.933c0 2.011 1.34 3.352 3.352 3.352h73.752c2.012 0 3.353-1.34 3.353-3.352z"/></g></g></g><g><g><g><path fill="#fff" d="M40.228 30.402c-1.005 0-2.346-.67-2.682-1.676-1.005-1.677-.67-3.688 1.006-4.694L75.428.566c1.676-1.006 3.688-.67 4.693 1.006 1.006 1.676.67 3.687-1.005 4.693L42.24 29.73c-.67.336-1.341.67-2.012.67z"/></g></g></g><g><g><g><path fill="#fff" d="M40.228 30.402c-.67 0-1.34-.335-1.676-.67L1.676 6.264C0 5.259-.335 3.248.67 1.907 1.676.23 3.688-.105 5.03.9l36.876 23.467c1.676 1.005 2.01 3.017 1.005 4.693-.335.67-1.676 1.34-2.682 1.34z"/></g></g></g></g></g></svg>