<svg xmlns="http://www.w3.org/2000/svg" width="14" height="27" viewBox="0 0 14 27"><g><g><g><path  d="M1.012 15.322H2.65a.31.31 0 0 1 .29.29v10.31c0 .53.433.964.963.964H7.66c.53 0 .964-.434.964-.964v-10.31a.31.31 0 0 1 .289-.29h2.698c.482 0 .916-.337.964-.819l.626-3.758c.096-.578-.385-1.157-.964-1.157h-3.18a.432.432 0 0 1-.433-.433v-2.41c0-.626.337-.963.963-.963h2.843c.53 0 .964-.434.964-.964V.964A.966.966 0 0 0 12.43 0h-3.42C2.745 0 2.89 5.06 2.89 5.782v3.517a.31.31 0 0 1-.29.29H.965a.966.966 0 0 0-.964.963v3.758c.048.579.482 1.012 1.012 1.012z"/></g></g></g></svg>