<svg xmlns="http://www.w3.org/2000/svg" width="28" height="27" viewBox="0 0 28 27"><g><g><path  d="M21.628 20.322h-3.273v-5.27c0-1.324-.474-2.227-1.659-2.227-.904 0-1.443.61-1.68 1.198-.086.21-.107.504-.107.798v5.501h-3.274s.043-8.926 0-9.85h3.274v1.395c.435-.671 1.213-1.626 2.95-1.626 2.154 0 3.77 1.408 3.77 4.433zM8.186 9.127h-.021c-1.099 0-1.81-.756-1.81-1.701 0-.967.733-1.702 1.853-1.702s1.81.735 1.83 1.702c0 .945-.71 1.701-1.852 1.701zm1.637 11.195H6.55v-9.85h3.274zM25.233 0H2.227a1.939 1.939 0 0 0-1.94 1.939v23.008c0 1.071.869 1.94 1.94 1.94h23.008a1.939 1.939 0 0 0 1.939-1.94V1.939A1.939 1.939 0 0 0 25.233 0z"/></g></g></svg>