<svg xmlns="http://www.w3.org/2000/svg" width="53" height="53" viewBox="0 0 53 53"><g><g opacity=".62"><path fill="#fff" d="M28.744 16.467h5.226V37.37h-5.226zm18.292 10.452c0-11.524-9.381-20.905-20.905-20.905-11.524 0-20.905 9.381-20.905 20.905 0 11.524 9.381 20.905 20.905 20.905 11.524 0 20.905-9.381 20.905-20.905zm5.226 0c0 14.437-11.693 26.131-26.13 26.131C11.693 53.05 0 41.356 0 26.92S11.694.788 26.131.788c14.438 0 26.131 11.694 26.131 26.131zm-33.97-10.452h5.226V37.37h-5.226z"/></g></g></svg>