<svg xmlns="http://www.w3.org/2000/svg" width="48" height="48" viewBox="0 0 48 48"><g><g><g><g><g><path  d="M24.176 44.728A20.507 20.507 0 0 1 3.624 24.176 20.507 20.507 0 0 1 24.176 3.624a20.507 20.507 0 0 1 20.552 20.552 20.507 20.507 0 0 1-20.552 20.552zm0-44.276C11.054.452.452 11.042.452 24.176c0 13.135 10.59 23.724 23.724 23.724C37.311 47.9 47.9 37.31 47.9 24.176S37.3.452 24.176.452z"/></g></g></g><g><g><g><path  d="M32.872 23.223L22.44 12.79c-.627-.627-1.58-.627-2.219 0-.627.628-.627 1.58 0 2.22l9.166 9.166-9.166 9.167c-.627.627-.627 1.58 0 2.219.314.313.627.47 1.11.47.313 0 .796-.157 1.266-.313l10.276-10.277c.314-.313.47-.627.47-1.11 0-.47-.156-.795-.47-1.109z"/></g></g></g></g></g></svg>