<svg xmlns="http://www.w3.org/2000/svg" width="256" height="50" viewBox="0 0 256 50"><g><g><g><g><g><path d="M57.19 19.695v-3.5h11.668c3.889 0 5.834 1.944 5.834 5.833v5.834c0 3.89-1.945 5.834-5.834 5.834H57.19v-3.5h11.178c1.867 0 2.8-.922 2.8-2.766v-4.982c0-1.835-.93-2.753-2.788-2.753z"/></g><g><path  d="M95.694 30.195v3.5H78.192v-17.5h3.5v14z"/></g><g><path  d="M114.607 16.194l-7.596 17.502h-3.804l-7.595-17.502h3.815l5.682 13.103 5.694-13.103z"/></g><g><path  d="M121.969 26.695h-5.204v-3.5h11.084c1.945 0 2.917-.583 2.917-1.75s-.972-1.75-2.917-1.75h-11.084v-3.5h11.668c3.889 0 5.834 1.75 5.834 5.25s-1.945 5.25-5.834 5.25h-1.085l8.214 7h-5.379z"/></g><g><path  d="M137.767 19.695v-3.5h11.667c3.89 0 5.834 1.944 5.834 5.833v5.834c0 3.89-1.944 5.834-5.834 5.834h-11.667v-3.5h11.177c1.867 0 2.8-.922 2.8-2.766v-4.982c0-1.835-.929-2.753-2.788-2.753z"/></g><g><path  d="M168.103 23.79v9.906h-3.5V16.194h3.581l6.92 13.617 6.918-13.617h3.582v17.502h-3.5v-9.918l-5.029 9.906v.012h-3.944z"/></g><g><path  d="M189.105 33.696v-3.5h17.5v3.5zm0-10.501h17.5v3.5h-17.5zm0-7h17.5v3.5h-17.5z"/></g><g><path  d="M210.106 19.695v-3.5h11.668c3.889 0 5.833 1.944 5.833 5.833v5.834c0 3.89-1.944 5.834-5.833 5.834h-11.668v-3.5h11.177c1.867 0 2.801-.922 2.801-2.766v-4.982c0-1.835-.93-2.753-2.789-2.753z"/></g><g><path  d="M234.608 33.696h-3.5V16.194h3.5z"/></g><g><path  d="M251.981 33.696l-5.693-13.103-5.683 13.103h-3.815l7.596-17.502h3.803l7.596 17.502z"/></g></g><g><path  d="M213.434 26.735h-3.27v-3.559h3.27z"/></g><g><path  d="M141.13 26.735h-3.27v-3.559h3.27z"/></g><g><path  d="M60.46 26.735h-3.271v-3.559h3.27z"/></g></g><g><path  d="M46.57 25.132c0 12.3-10.007 22.308-22.308 22.308-12.3 0-22.308-10.007-22.308-22.308 0-12.3 10.007-22.308 22.308-22.308 12.3 0 22.308 10.007 22.308 22.308zm1.954 0C48.524 11.754 37.64.87 24.262.87S0 11.754 0 25.132s10.884 24.262 24.262 24.262S48.524 38.51 48.524 25.132z"/></g><g><g><path  d="M27.144 23.79v9.906h-3.5V16.194h3.581l6.919 13.617 6.919-13.617h3.582v17.502h-3.5v-9.918l-5.03 9.906v.012h-3.943z"/></g></g><g><g><g><path  d="M3.768 19.695v-3.5h11.667c3.89 0 5.834 1.944 5.834 5.833v5.834c0 3.89-1.945 5.834-5.834 5.834H3.767v-3.5h11.178c1.867 0 2.8-.922 2.8-2.766v-4.982c0-1.835-.93-2.753-2.788-2.753z"/></g></g><g><g><path  d="M7.037 26.735h-3.27v-3.559h3.27z"/></g></g></g></g></g></svg>