<svg xmlns="http://www.w3.org/2000/svg" width="284" height="98" viewBox="0 0 284 98"><g><g><g><path fill="#fff" d="M105.436 22.968V16.62h21.158c7.053 0 10.58 3.527 10.58 10.58v10.579c0 7.053-3.527 10.579-10.58 10.579h-21.158V42.01h20.27c3.385 0 5.078-1.671 5.078-5.014V27.96c0-3.329-1.686-4.993-5.057-4.993z"/></g><g><path fill="#fff" d="M175.258 42.01v6.348h-31.737V16.62h6.347v25.39z"/></g><g><path fill="#fff" d="M209.555 16.62l-13.773 31.738h-6.898L175.11 16.62h6.919l10.304 23.761 10.325-23.76z"/></g><g><path fill="#fff" d="M222.907 35.663h-9.437v-6.348h20.1c3.527 0 5.29-1.057 5.29-3.173s-1.763-3.174-5.29-3.174h-20.1V16.62h21.158c7.053 0 10.58 3.174 10.58 9.522 0 6.347-3.527 9.52-10.58 9.52h-1.967l14.895 12.696h-9.754z"/></g><g><path fill="#fff" d="M251.555 22.968V16.62h21.158c7.052 0 10.579 3.527 10.579 10.58v10.579c0 7.053-3.527 10.579-10.58 10.579h-21.157V42.01h20.27c3.384 0 5.077-1.671 5.077-5.014V27.96c0-3.329-1.686-4.993-5.057-4.993z"/></g><g><path fill="#fff" d="M111.643 68.523v17.963h-6.347V54.75h6.495l12.547 24.692 12.547-24.692h6.496v31.737h-6.348V68.502l-9.12 17.963v.021h-7.15z"/></g><g><path fill="#fff" d="M149.728 86.486V80.14h31.738v6.347zm0-19.042h31.738v6.348h-31.738zm0-12.695h31.738v6.348h-31.738z"/></g><g><path fill="#fff" d="M187.812 61.097v-6.348h21.159c7.052 0 10.579 3.527 10.579 10.58v10.578c0 7.053-3.527 10.58-10.58 10.58h-21.158v-6.348h20.27c3.386 0 5.078-1.672 5.078-5.014V66.09c0-3.329-1.686-4.993-5.057-4.993z"/></g><g><path fill="#fff" d="M232.245 86.486h-6.348V54.75h6.348z"/></g><g><path fill="#fff" d="M263.75 86.486l-10.326-23.76-10.304 23.76h-6.919l13.775-31.737h6.897l13.774 31.737z"/></g><g transform="rotate(-90 190.5 70.5)"><path fill="#fff" d="M187.655 73.602V67.67h6.453v5.93z"/></g><g transform="rotate(-90 254.5 32.5)"><path fill="#fff" d="M251.462 35.473v-5.93h6.453v5.93z"/></g><g transform="rotate(-90 108.5 32.5)"><path fill="#fff" d="M105.173 35.473v-5.93h6.453v5.93z"/></g><g><g><g><path d="M7 48.864C7 25.594 25.865 6.728 49.136 6.728c23.271 0 42.136 18.865 42.136 42.136C91.272 72.135 72.407 91 49.136 91 25.865 91 7 72.135 7 48.864z"/><path fill="none" stroke="#0054e8" stroke-miterlimit="20" stroke-width="12.67" d="M7 48.864C7 25.594 25.865 6.728 49.136 6.728c23.271 0 42.136 18.865 42.136 42.136C91.272 72.135 72.407 91 49.136 91 25.865 91 7 72.135 7 48.864z"/></g><g><path d="M7 48.864C7 25.594 25.865 6.728 49.136 6.728c23.271 0 42.136 18.865 42.136 42.136C91.272 72.135 72.407 91 49.136 91 25.865 91 7 72.135 7 48.864z"/><path fill="none" stroke="#fff" stroke-miterlimit="20" stroke-width="3.17" d="M7 48.864C7 25.594 25.865 6.728 49.136 6.728c23.271 0 42.136 18.865 42.136 42.136C91.272 72.135 72.407 91 49.136 91 25.865 91 7 72.135 7 48.864z"/></g></g><g><path fill="#fff" d="M54.45 46.346V64.31h-6.347V32.572h6.495l12.547 24.692 12.547-24.692h6.496V64.31H79.84V46.325l-9.12 17.963v.022h-7.15z"/></g><g><g><path fill="#fff" d="M12.06 38.92v-6.348h21.158c7.053 0 10.58 3.527 10.58 10.58V53.73c0 7.053-3.527 10.58-10.58 10.58H12.06v-6.348h20.27c3.385 0 5.078-1.671 5.078-5.014v-9.035c0-3.329-1.686-4.993-5.057-4.993z"/></g><g transform="rotate(-90 15 48.5)"><path fill="#fff" d="M11.797 51.425v-5.931h6.453v5.93z"/></g></g></g></g></g></svg>