<svg xmlns="http://www.w3.org/2000/svg" width="178" height="49" viewBox="0 0 178 49"><g><g><g><g><path fill="#fff" d="M42.017 34.74c-.792-2.315-2.712-3.504-5.271-3.504-2.59 0-4.51 1.432-5.454 3.504zm6.094 2.651v2.255H31.018c.7 2.437 2.681 4.022 5.88 4.022 2.316 0 4.297-1.219 5.302-3.169l4.814 2.864c-1.92 3.29-5.362 5.607-10.146 5.607-6.917 0-11.7-5.15-11.7-11.518s5.149-11.517 11.517-11.517c6.764 0 11.426 5.088 11.426 11.456zm123.523 0c0-3.29-2.377-5.941-5.667-5.941-3.352 0-5.942 2.529-5.942 5.941 0 3.413 2.56 5.972 5.942 5.972 3.26 0 5.667-2.681 5.667-5.972zm-17.55.061c0-7.83 5.758-11.517 10.755-11.517 2.864 0 5.15 1.066 6.612 2.62v-12.37h6.063v32.327h-6.063v-2.468c-1.462 1.737-3.809 2.926-6.673 2.926-4.722 0-10.694-3.748-10.694-11.518zm-8.075-18.068a3.615 3.615 0 0 1 3.626-3.626 3.615 3.615 0 0 1 3.626 3.626 3.615 3.615 0 0 1-3.626 3.626 3.635 3.635 0 0 1-3.626-3.626zm.58 6.977h6.062v22.151h-6.063v-16.24h-2.194zm-10.117 0v3.626c1.097-2.316 3.108-3.626 6.125-3.626h2.437l-2.194 5.88h-1.645c-3.23 0-4.662 1.677-4.662 5.79v10.451h-6.063v-22.12zm-40.158 6.003c0-9.202 6.947-16.606 16.514-16.606 4.784 0 8.806 1.737 11.73 4.479a16.324 16.324 0 0 1 2.987 3.809l-5.393 3.29c-1.98-3.687-5.058-5.576-9.263-5.576-5.88 0-10.451 4.815-10.451 10.634 0 5.942 4.479 10.634 10.664 10.634 4.693 0 8.014-2.65 9.171-6.764h-10.146v-5.88h16.789v2.467c0 8.684-6.185 16.149-15.814 16.149-10.116-.03-16.788-7.709-16.788-16.636zM89 37.39c0-3.29-2.377-5.941-5.667-5.941-3.352 0-5.942 2.529-5.942 5.941 0 3.413 2.56 5.972 5.942 5.972 3.29 0 5.667-2.681 5.667-5.972zm-17.52.061c0-7.83 5.759-11.517 10.756-11.517 2.864 0 5.15 1.066 6.612 2.62v-12.37h6.063v32.327h-6.063v-2.468c-1.463 1.737-3.809 2.926-6.673 2.926-4.723 0-10.695-3.748-10.695-11.518zm-21.938-11.09h6.033v2.467c1.432-1.828 3.595-2.925 6.124-2.925 5.21 0 8.38 3.352 8.38 9.08v13.498h-6.186V35.776c0-2.955-1.37-4.692-4.083-4.692-2.315 0-4.204 1.584-4.204 5.302v12.096h-6.064zM0 43.15l5.637-4.418c1.584 2.742 4.113 4.326 7.008 4.326 3.138 0 4.814-2.041 4.814-4.265 0-2.651-3.23-3.504-6.673-4.57-4.326-1.341-9.171-3.017-9.171-9.202 0-5.18 4.51-9.294 10.756-9.294 5.27 0 8.287 1.981 10.908 4.693l-5.089 3.839c-1.34-1.98-3.23-3.047-5.758-3.047-2.865 0-4.419 1.554-4.419 3.595 0 2.468 3.108 3.321 6.551 4.48 4.388 1.431 9.354 3.35 9.354 9.567 0 5.149-4.082 10.085-11.212 10.085-5.88.03-9.78-2.468-12.706-5.79z"/></g></g><g><g><g><path fill="#fff" d="M6.124 1.925V9.45H4.388V1.925H1.706V.4h7.13v1.493H6.124z"/></g><g><path fill="#fff" d="M21.511 9.45h-1.645l-2.011-6.58-2.011 6.58h-1.645L11.669.37l1.829.031L15.174 6.8 17.063.4H18.8L20.689 6.8 22.334.4h1.737z"/></g><g><path fill="#fff" d="M27.544 9.45V.402h1.737v9.05z"/></g><g><path fill="#fff" d="M33.333 9.45V.402h1.737v7.526h3.017l.03 1.524z"/></g><g><path fill="#fff" d="M41.713 9.45V.402h1.736v9.05z"/></g><g><path fill="#fff" d="M53.9 4.941c0 1.98-.944 3.26-2.498 3.26-1.524 0-2.468-1.28-2.468-3.26 0-1.98.914-3.26 2.468-3.26 1.554 0 2.498 1.28 2.498 3.26zm1.768 0c0-2.803-1.646-4.692-4.236-4.692s-4.265 1.89-4.265 4.692c0 2.803 1.675 4.693 4.235 4.693 2.59 0 4.235-1.92 4.266-4.693z"/></g></g></g></g></g></svg>