<svg xmlns="http://www.w3.org/2000/svg" width="75" height="56" viewBox="0 0 75 56"><g><g><path fill="#fff" d="M66.29 22.288L53.486 9.482l5.559-5.559L71.85 16.73zm-6.719 3.779A5.598 5.598 0 0 0 58 29.042a16.36 16.36 0 0 1-4.553 8.713l-.917.918-7.551-7.551a6.09 6.09 0 0 0 2.82-.432 1.193 1.193 0 1 0-.903-2.21c-3.072 1.257-6.755-2.207-7.165-2.606a.912.912 0 0 0-.02-.02l-.043-.042-.037-.037h-.001l-1.005-1.006 1.14-1.14a1.193 1.193 0 1 0-1.688-1.688l-1.981 1.981-.002.002-.003.003-4.553 4.554a2.403 2.403 0 0 1-3.394 0 2.384 2.384 0 0 1-.703-1.697c0-.641.25-1.244.703-1.697l7.86-7.86a7.876 7.876 0 0 1 5.591-2.317c1.123 0 2.254.243 3.27.705 2.312 1.049 5.06.56 6.838-1.217l1.662-1.661 9.769 9.769zm-7.518 17.805a1.613 1.613 0 0 1-1.148.477c-.434 0-.842-.17-1.15-.477L38.178 32.295a1.194 1.194 0 0 0-1.688 1.688L48.96 46.454c.307.307.476.715.476 1.15 0 .434-.169.843-.475 1.15a1.629 1.629 0 0 1-2.3 0l-2.104-2.104-.035-.037-.011-.01-9.673-9.672a1.194 1.194 0 0 0-1.688 1.688l9.704 9.703c.296.304.46.706.46 1.133a1.626 1.626 0 0 1-2.774 1.149L30.019 40.082a1.194 1.194 0 1 0-1.688 1.688l7.8 7.8.006.006c.306.306.475.714.475 1.148 0 .433-.169.842-.477 1.15a1.611 1.611 0 0 1-1.457.446 4.292 4.292 0 0 0-4.246-4.931l-.096.002a4.282 4.282 0 0 0-1.254-3.131 4.269 4.269 0 0 0-3.252-1.253 4.286 4.286 0 0 0-1.25-3.25 4.296 4.296 0 0 0-4.007-1.146l-.855-.855a16.364 16.364 0 0 1-4.533-8.606 6.028 6.028 0 0 0-1.677-3.167l-2.104-2.104 11.97-11.97 2.984 2.983a6.085 6.085 0 0 0 4.307 1.76c.716 0 1.44-.123 2.137-.377a5.619 5.619 0 0 1 1.043-.267l-7.39 7.39a4.755 4.755 0 0 0-1.402 3.385c0 1.279.498 2.48 1.402 3.385a4.77 4.77 0 0 0 3.384 1.4 4.774 4.774 0 0 0 3.386-1.4l3.711-3.712 1.005 1.005v.001l.042.042.04.04h.001l.001.001.034.033 13.995 13.995c.307.307.476.715.476 1.15 0 .434-.17.842-.477 1.15zm-20.272 9.163c-.36.36-.84.559-1.35.559a1.91 1.91 0 0 1-1.35-3.258c.373-.373.862-.559 1.35-.559.49 0 .978.186 1.35.558a1.91 1.91 0 0 1 0 2.7zm-4.387-4.388c-.36.361-.84.56-1.35.56a1.91 1.91 0 0 1-1.35-3.258c.373-.373.862-.559 1.35-.559.49 0 .978.186 1.35.558a1.91 1.91 0 0 1 0 2.7zm-4.503-4.502a1.911 1.911 0 0 1-2.699 0c-.36-.36-.559-.84-.559-1.35 0-.51.199-.989.56-1.35.371-.371.86-.558 1.349-.558a1.911 1.911 0 0 1 1.35 3.257zM8.441 23.468l-5.56-5.56L17.327 3.464l5.559 5.56zm65.94-7.583L59.889 1.391a1.194 1.194 0 0 0-1.688 0l-7.247 7.247a1.193 1.193 0 0 0 0 1.688l.723.723-1.662 1.66c-1.078 1.079-2.751 1.373-4.163.732a10.37 10.37 0 0 0-4.257-.918c-1.734 0-3.43.435-4.935 1.26a8.035 8.035 0 0 0-4.672.249c-1.409.512-2.919.195-3.942-.828l-2.983-2.983.356-.355a1.193 1.193 0 0 0 0-1.688L18.17.93a1.193 1.193 0 0 0-1.688 0L.349 17.064a1.194 1.194 0 0 0 0 1.688L7.596 26a1.193 1.193 0 0 0 1.688 0l.432-.432 2.104 2.104a3.65 3.65 0 0 1 1.018 1.917 18.743 18.743 0 0 0 5.192 9.856l.396.396a4.264 4.264 0 0 0-1.18 2.955c0 1.147.447 2.226 1.258 3.037a4.282 4.282 0 0 0 3.253 1.251 4.286 4.286 0 0 0 1.25 3.252 4.268 4.268 0 0 0 3.038 1.258l.096-.002a4.283 4.283 0 0 0 1.253 3.131 4.267 4.267 0 0 0 3.038 1.259 4.269 4.269 0 0 0 3.233-1.47c.423.148.87.227 1.322.227a3.98 3.98 0 0 0 2.837-1.177c.403-.402.708-.876.907-1.391l.122.122a4 4 0 0 0 2.837 1.174 4 4 0 0 0 2.837-1.174c.416-.416.728-.906.926-1.442.7.51 1.529.765 2.358.765a4.005 4.005 0 0 0 2.839-1.173 3.987 3.987 0 0 0 1.175-2.838c0-.325-.04-.642-.113-.95a3.98 3.98 0 0 0 2.03-1.094 3.986 3.986 0 0 0 1.175-2.837c0-.845-.26-1.649-.74-2.323l.957-.957a18.737 18.737 0 0 0 5.215-9.98c.114-.635.429-1.226.91-1.708l3.562-3.561.626.626a1.19 1.19 0 0 0 1.688 0l7.247-7.247a1.193 1.193 0 0 0 0-1.688z"/></g></g></svg>