<svg xmlns="http://www.w3.org/2000/svg" width="68" height="68" viewBox="0 0 68 68"><g><g><path fill="#fff" d="M33.921 64.808a30.717 30.717 0 0 1-15.87-4.396l.616-4.995a3.71 3.71 0 0 0-1.18-3.189s-3.857-3.527-3.89-3.577l-3.879-6.044a3.687 3.687 0 0 0-3.116-1.704H3.815a30.891 30.891 0 0 1-.79-7.778l6.336-9.285c.279-.41.63-.753 1.046-1.023l3.244-2.105a6.704 6.704 0 0 0 3.068-5.644v-6.83a30.763 30.763 0 0 1 9.725-4.325l.348 1.696a.424.424 0 0 1-.041.283l-2.531 4.764c-.158.298-.363 1.08-.363 1.08a3.418 3.418 0 0 0 .762 2.904 3.416 3.416 0 0 0 2.607 1.2c.049 0 1.506.071 2.615-1.203l5.586-6.528a.424.424 0 0 1 .164-.118l3.585-1.438a3.45 3.45 0 0 0 1.326-.949l1.353-1.573a30.713 30.713 0 0 1 6.774 2.695c-.035.08-1.742 7.13-1.742 7.13a.044.044 0 0 1-.038.032l-6.772.698c-.665.068-1.3.359-1.786.818l-4.499 4.246a.042.042 0 0 1-.018.01l-3.68.991a3.05 3.05 0 0 0-2.237 2.563 3.05 3.05 0 0 0 1.514 3.046c.412.235.88.373 1.352.4l12.255.67c.016.001.03.011.037.026l.405.906a.044.044 0 0 1-.014.053l-4.364 3.128a.042.042 0 0 1-.03.008l-6.598-.719-4.755-1.983a3.07 3.07 0 0 0-3.02.38l-4.908 3.704a3.041 3.041 0 0 0-1.182 1.986l-.804 5.345a3.07 3.07 0 0 0 .379 1.99l3.196 5.511c.5.861 1.39 1.427 2.381 1.513l5.619.489a.044.044 0 0 1 .037.028l1.23 3.301 1.278 5.849a3.069 3.069 0 0 0 1.442 1.986l2.784 1.63a3.062 3.062 0 0 0 3.687-.455L44.07 57.8c.56-.548.885-1.28.916-2.062l.28-6.995a.04.04 0 0 1 .007-.023l3.223-4.886a3.052 3.052 0 0 0-.463-3.917l-1.978-1.851a.044.044 0 0 1-.014-.039l.293-1.788c.003-.014.004-.023.026-.033.02-.01.028-.005.04.003l3.793 2.447c1.27.82 2.975.578 3.967-.563l1.406-1.618a3.06 3.06 0 0 0-1.233-4.87l-.107-.04-.02-.01c-.01-.012-.01-.046-.005-.057a.098.098 0 0 1 .02-.014l2.259-1.182a.044.044 0 0 1 .046.003l1.81 1.358c.823.617 1.893.78 2.862.434a3.051 3.051 0 0 0 1.942-2.145l.303-1.221a.044.044 0 0 1 .035-.033l.88-.17c.308 1.747.47 3.543.47 5.375-.001 17.042-13.865 30.906-30.907 30.906zm-18.246-9.76l-.427 3.463A31.035 31.035 0 0 1 4.682 43.92h1.92c.235 0 .452.119.579.316l3.879 6.044c.175.272.383.519.621.736l3.774 3.442c.164.149.247.37.22.59zm-1.97-44.504v4.523a3.7 3.7 0 0 1-1.694 3.115l-3.246 2.106A6.696 6.696 0 0 0 6.87 22.14l-2.946 4.317a30.95 30.95 0 0 1 9.78-15.913zm13.177 1.527l2.532-4.764a3.445 3.445 0 0 0 .331-2.304l-.343-1.675a31.003 31.003 0 0 1 9.076.005s-.362.396-.425.421l-3.585 1.438a3.454 3.454 0 0 0-1.332.956l-5.586 6.529a.424.424 0 0 1-.642 0c-.198-.22-.045-.569-.026-.606zm22.937 2.49l1.491-6.195c5.938 4.056 10.395 10.126 12.38 17.22l-.782.15a3.068 3.068 0 0 0-2.391 2.267l-.303 1.222c-.004.014-.006.023-.028.03-.022.008-.03.003-.04-.006l-1.81-1.357a3.073 3.073 0 0 0-3.255-.263l-2.258 1.182a3.024 3.024 0 0 0-1.634 2.899 3.024 3.024 0 0 0 1.978 2.675l.107.04c.012.005.021.008.027.03.005.023 0 .03-.01.04l-1.407 1.618a.044.044 0 0 1-.056.008l-3.793-2.447a3.049 3.049 0 0 0-2.9-.225 3.05 3.05 0 0 0-1.777 2.301l-.292 1.788a3.053 3.053 0 0 0 .929 2.728l1.977 1.85a.043.043 0 0 1 .007.057l-3.223 4.886a3.061 3.061 0 0 0-.503 1.562l-.28 6.995a.043.043 0 0 1-.013.03l-4.293 4.207a.044.044 0 0 1-.053.006l-2.783-1.63a.044.044 0 0 1-.02-.028s-1.351-6.128-1.401-6.264l-1.228-3.295a3.073 3.073 0 0 0-2.601-1.98l-5.619-.488a.043.043 0 0 1-.034-.022l-3.196-5.51a.045.045 0 0 1-.006-.03l.804-5.344a.044.044 0 0 1 .017-.029l4.908-3.702a.044.044 0 0 1 .043-.006l4.755 1.984c.271.113.556.186.847.218l6.586.716c.751.081 1.5-.116 2.113-.555l4.364-3.128a3.07 3.07 0 0 0 1.01-3.734l-.404-.906a3.047 3.047 0 0 0-2.626-1.806l-12.255-.671a.044.044 0 0 1-.019-.006l-.02-.013a.088.088 0 0 1 .006-.058.107.107 0 0 1 .025-.01l3.679-.991a3.069 3.069 0 0 0 1.303-.729l4.5-4.246a.044.044 0 0 1 .025-.011l6.771-.698a3.063 3.063 0 0 0 2.661-2.326zm8.088-4.645C51.5 3.51 42.982-.019 33.92-.019c-9.06 0-17.579 3.528-23.986 9.935C3.53 16.323 0 24.841 0 33.902c0 9.06 3.529 17.579 9.935 23.986 6.407 6.407 14.926 9.935 23.986 9.935s17.58-3.528 23.986-9.935c6.407-6.407 9.935-14.925 9.935-23.986 0-9.06-3.528-17.579-9.935-23.986z"/></g></g></svg>